<svg width="34" height="34" viewBox="0 0 34 34" fill="none" xmlns="http://www.w3.org/2000/svg">
<path d="M1 9C1 4.58172 4.58172 1 9 1H25C29.4183 1 33 4.58172 33 9V25C33 29.4183 29.4183 33 25 33H9C4.58172 33 1 29.4183 1 25V9Z" stroke="#FFD7C2" stroke-width="0.75"/>
<path d="M19.96 11.0667C18.7533 11.0667 17.6733 11.6533 17 12.5533C16.3266 11.6533 15.2466 11.0667 14.04 11.0667C11.9933 11.0667 10.3333 12.7333 10.3333 14.7933C10.3333 15.5867 10.46 16.32 10.68 17C11.7333 20.3333 14.98 22.3267 16.5866 22.8733C16.8133 22.9533 17.1866 22.9533 17.4133 22.8733C19.02 22.3267 22.2666 20.3333 23.32 17C23.54 16.32 23.6666 15.5867 23.6666 14.7933C23.6666 12.7333 22.0066 11.0667 19.96 11.0667Z" fill="#FF7E3A"/>
</svg>
