<svg width="34" height="34" viewBox="0 0 34 34" fill="none" xmlns="http://www.w3.org/2000/svg">
<rect x="1.2019" y="1" width="32" height="32" rx="8" stroke="#FFD7C2" stroke-width="0.75"/>
<path d="M20.1618 11.0667C18.9552 11.0667 17.8752 11.6533 17.2018 12.5533C16.5285 11.6533 15.4485 11.0667 14.2418 11.0667C12.1952 11.0667 10.5352 12.7333 10.5352 14.7933C10.5352 15.5867 10.6618 16.32 10.8818 17C11.9352 20.3333 15.1818 22.3267 16.7885 22.8733C17.0152 22.9533 17.3885 22.9533 17.6152 22.8733C19.2218 22.3267 22.4685 20.3333 23.5218 17C23.7418 16.32 23.8685 15.5867 23.8685 14.7933C23.8685 12.7333 22.2085 11.0667 20.1618 11.0667Z" fill="#FF7E3A"/>
</svg>
