<svg width="33" height="34" viewBox="0 0 33 34" fill="none" xmlns="http://www.w3.org/2000/svg">
<rect x="0.436279" y="1" width="32" height="32" rx="8" stroke="#FFD7C2" stroke-width="0.75"/>
<path d="M19.3962 11.0667C18.1895 11.0667 17.1095 11.6533 16.4362 12.5533C15.7629 11.6533 14.6829 11.0667 13.4762 11.0667C11.4295 11.0667 9.76953 12.7333 9.76953 14.7933C9.76953 15.5867 9.8962 16.32 10.1162 17C11.1695 20.3333 14.4162 22.3267 16.0229 22.8733C16.2495 22.9533 16.6229 22.9533 16.8495 22.8733C18.4562 22.3267 21.7029 20.3333 22.7562 17C22.9762 16.32 23.1029 15.5867 23.1029 14.7933C23.1029 12.7333 21.4429 11.0667 19.3962 11.0667Z" fill="#FF7E3A"/>
</svg>
