<svg width="34" height="34" viewBox="0 0 34 34" fill="none" xmlns="http://www.w3.org/2000/svg">
<rect x="0.683105" y="1" width="32" height="32" rx="8" stroke="#FFD7C2" stroke-width="0.75"/>
<path d="M19.643 11.0667C18.4364 11.0667 17.3564 11.6533 16.683 12.5533C16.0097 11.6533 14.9297 11.0667 13.723 11.0667C11.6764 11.0667 10.0164 12.7333 10.0164 14.7933C10.0164 15.5867 10.143 16.32 10.363 17C11.4164 20.3333 14.663 22.3267 16.2697 22.8733C16.4964 22.9533 16.8697 22.9533 17.0964 22.8733C18.703 22.3267 21.9497 20.3333 23.003 17C23.223 16.32 23.3497 15.5867 23.3497 14.7933C23.3497 12.7333 21.6897 11.0667 19.643 11.0667Z" fill="#FF7E3A"/>
</svg>
