<svg width="33" height="34" viewBox="0 0 33 34" fill="none" xmlns="http://www.w3.org/2000/svg">
<rect x="0.436279" y="1" width="32" height="32" rx="8" stroke="#FFD7C2" stroke-width="0.75"/>
<path d="M20.123 14.18C20.0763 14.1733 20.0296 14.1733 19.983 14.18C18.9496 14.1467 18.1296 13.3 18.1296 12.26C18.1296 11.2 18.9896 10.3333 20.0563 10.3333C21.1163 10.3333 21.983 11.1933 21.983 12.26C21.9763 13.3 21.1563 14.1467 20.123 14.18Z" fill="#99938F"/>
<path d="M22.2963 18.8C21.5496 19.3 20.5029 19.4867 19.5363 19.36C19.7896 18.8133 19.9229 18.2067 19.9296 17.5667C19.9296 16.9 19.7829 16.2667 19.5029 15.7133C20.4896 15.58 21.5363 15.7667 22.2896 16.2667C23.3429 16.96 23.3429 18.1 22.2963 18.8Z" fill="#99938F"/>
<path d="M12.7296 14.18C12.7762 14.1733 12.8229 14.1733 12.8696 14.18C13.9029 14.1467 14.7229 13.3 14.7229 12.26C14.7229 11.1933 13.8629 10.3333 12.7962 10.3333C11.7362 10.3333 10.8762 11.1933 10.8762 12.26C10.8762 13.3 11.6962 14.1467 12.7296 14.18Z" fill="#99938F"/>
<path d="M12.803 17.5667C12.803 18.2133 12.943 18.8267 13.1964 19.38C12.2564 19.48 11.2764 19.28 10.5564 18.8067C9.50302 18.1067 9.50302 16.9667 10.5564 16.2667C11.2697 15.7867 12.2764 15.5933 13.223 15.7C12.9497 16.26 12.803 16.8933 12.803 17.5667Z" fill="#99938F"/>
<path d="M16.5162 19.58C16.4629 19.5733 16.4029 19.5733 16.3429 19.58C15.1162 19.54 14.1362 18.5333 14.1362 17.2933C14.1429 16.0267 15.1629 15 16.4362 15C17.7029 15 18.7296 16.0267 18.7296 17.2933C18.7229 18.5333 17.7496 19.54 16.5162 19.58Z" fill="#99938F"/>
<path d="M14.3497 20.96C13.3431 21.6333 13.3431 22.74 14.3497 23.4067C15.4964 24.1733 17.3764 24.1733 18.5231 23.4067C19.5297 22.7333 19.5297 21.6267 18.5231 20.96C17.3831 20.1933 15.5031 20.1933 14.3497 20.96Z" fill="#99938F"/>
</svg>
