<svg width="34" height="34" viewBox="0 0 34 34" fill="none" xmlns="http://www.w3.org/2000/svg">
<path d="M1 9C1 4.58172 4.58172 1 9 1H25C29.4183 1 33 4.58172 33 9V25C33 29.4183 29.4183 33 25 33H9C4.58172 33 1 29.4183 1 25V9Z" stroke="#FFD7C2" stroke-width="0.75"/>
<path d="M20.6867 14.18C20.64 14.1733 20.5934 14.1733 20.5467 14.18C19.5134 14.1467 18.6934 13.3 18.6934 12.26C18.6934 11.2 19.5534 10.3333 20.62 10.3333C21.68 10.3333 22.5467 11.1933 22.5467 12.26C22.54 13.3 21.72 14.1467 20.6867 14.18Z" fill="#99938F"/>
<path d="M22.86 18.8C22.1133 19.3 21.0666 19.4867 20.1 19.36C20.3533 18.8133 20.4866 18.2067 20.4933 17.5667C20.4933 16.9 20.3467 16.2667 20.0667 15.7133C21.0533 15.58 22.1 15.7667 22.8533 16.2667C23.9067 16.96 23.9067 18.1 22.86 18.8Z" fill="#99938F"/>
<path d="M13.2933 14.18C13.34 14.1733 13.3867 14.1733 13.4333 14.18C14.4667 14.1467 15.2867 13.3 15.2867 12.26C15.2867 11.1933 14.4267 10.3333 13.36 10.3333C12.3 10.3333 11.44 11.1933 11.44 12.26C11.44 13.3 12.26 14.1467 13.2933 14.18Z" fill="#99938F"/>
<path d="M13.3667 17.5667C13.3667 18.2133 13.5067 18.8267 13.76 19.38C12.82 19.48 11.84 19.28 11.12 18.8067C10.0667 18.1067 10.0667 16.9667 11.12 16.2667C11.8334 15.7867 12.84 15.5933 13.7867 15.7C13.5134 16.26 13.3667 16.8933 13.3667 17.5667Z" fill="#99938F"/>
<path d="M17.08 19.58C17.0267 19.5733 16.9667 19.5733 16.9067 19.58C15.68 19.54 14.7 18.5333 14.7 17.2933C14.7067 16.0267 15.7267 15 17 15C18.2667 15 19.2933 16.0267 19.2933 17.2933C19.2867 18.5333 18.3133 19.54 17.08 19.58Z" fill="#99938F"/>
<path d="M14.9133 20.96C13.9067 21.6333 13.9067 22.74 14.9133 23.4067C16.06 24.1733 17.94 24.1733 19.0867 23.4067C20.0933 22.7333 20.0933 21.6267 19.0867 20.96C17.9467 20.1933 16.0667 20.1933 14.9133 20.96Z" fill="#99938F"/>
</svg>
