<svg width="34" height="34" viewBox="0 0 34 34" fill="none" xmlns="http://www.w3.org/2000/svg">
<rect x="0.683105" y="1" width="32" height="32" rx="8" stroke="#FFD7C2" stroke-width="0.75"/>
<path d="M20.3698 14.18C20.3231 14.1733 20.2765 14.1733 20.2298 14.18C19.1965 14.1467 18.3765 13.3 18.3765 12.26C18.3765 11.2 19.2365 10.3333 20.3031 10.3333C21.3631 10.3333 22.2298 11.1933 22.2298 12.26C22.2231 13.3 21.4031 14.1467 20.3698 14.18Z" fill="#99938F"/>
<path d="M22.5431 18.8C21.7964 19.3 20.7498 19.4867 19.7831 19.36C20.0364 18.8133 20.1698 18.2067 20.1764 17.5667C20.1764 16.9 20.0298 16.2667 19.7498 15.7133C20.7364 15.58 21.7831 15.7667 22.5364 16.2667C23.5898 16.96 23.5898 18.1 22.5431 18.8Z" fill="#99938F"/>
<path d="M12.9764 14.18C13.023 14.1733 13.0697 14.1733 13.1164 14.18C14.1497 14.1467 14.9697 13.3 14.9697 12.26C14.9697 11.1933 14.1097 10.3333 13.043 10.3333C11.983 10.3333 11.123 11.1933 11.123 12.26C11.123 13.3 11.943 14.1467 12.9764 14.18Z" fill="#99938F"/>
<path d="M13.0499 17.5667C13.0499 18.2133 13.1899 18.8267 13.4432 19.38C12.5032 19.48 11.5232 19.28 10.8032 18.8067C9.74985 18.1067 9.74985 16.9667 10.8032 16.2667C11.5165 15.7867 12.5232 15.5933 13.4699 15.7C13.1965 16.26 13.0499 16.8933 13.0499 17.5667Z" fill="#99938F"/>
<path d="M16.7631 19.58C16.7097 19.5733 16.6497 19.5733 16.5897 19.58C15.3631 19.54 14.3831 18.5333 14.3831 17.2933C14.3897 16.0267 15.4097 15 16.6831 15C17.9497 15 18.9764 16.0267 18.9764 17.2933C18.9697 18.5333 17.9964 19.54 16.7631 19.58Z" fill="#99938F"/>
<path d="M14.5966 20.96C13.5899 21.6333 13.5899 22.74 14.5966 23.4067C15.7432 24.1733 17.6232 24.1733 18.7699 23.4067C19.7766 22.7333 19.7766 21.6267 18.7699 20.96C17.6299 20.1933 15.7499 20.1933 14.5966 20.96Z" fill="#99938F"/>
</svg>
