<svg width="34" height="34" viewBox="0 0 34 34" fill="none" xmlns="http://www.w3.org/2000/svg">
<rect x="1.2019" y="1" width="32" height="32" rx="8" stroke="#FFD7C2" stroke-width="0.75"/>
<path d="M20.8886 14.18C20.8419 14.1733 20.7953 14.1733 20.7486 14.18C19.7153 14.1467 18.8953 13.3 18.8953 12.26C18.8953 11.2 19.7553 10.3333 20.8219 10.3333C21.8819 10.3333 22.7486 11.1933 22.7486 12.26C22.7419 13.3 21.9219 14.1467 20.8886 14.18Z" fill="#99938F"/>
<path d="M23.0619 18.8C22.3152 19.3 21.2686 19.4867 20.3019 19.36C20.5552 18.8133 20.6886 18.2067 20.6952 17.5667C20.6952 16.9 20.5486 16.2667 20.2686 15.7133C21.2552 15.58 22.3019 15.7667 23.0552 16.2667C24.1086 16.96 24.1086 18.1 23.0619 18.8Z" fill="#99938F"/>
<path d="M13.4952 14.18C13.5418 14.1733 13.5885 14.1733 13.6352 14.18C14.6685 14.1467 15.4885 13.3 15.4885 12.26C15.4885 11.1933 14.6285 10.3333 13.5618 10.3333C12.5018 10.3333 11.6418 11.1933 11.6418 12.26C11.6418 13.3 12.4618 14.1467 13.4952 14.18Z" fill="#99938F"/>
<path d="M13.5686 17.5667C13.5686 18.2133 13.7086 18.8267 13.962 19.38C13.022 19.48 12.042 19.28 11.322 18.8067C10.2686 18.1067 10.2686 16.9667 11.322 16.2667C12.0353 15.7867 13.042 15.5933 13.9886 15.7C13.7153 16.26 13.5686 16.8933 13.5686 17.5667Z" fill="#99938F"/>
<path d="M17.2819 19.58C17.2285 19.5733 17.1685 19.5733 17.1085 19.58C15.8819 19.54 14.9019 18.5333 14.9019 17.2933C14.9085 16.0267 15.9285 15 17.2019 15C18.4685 15 19.4952 16.0267 19.4952 17.2933C19.4885 18.5333 18.5152 19.54 17.2819 19.58Z" fill="#99938F"/>
<path d="M15.1154 20.96C14.1087 21.6333 14.1087 22.74 15.1154 23.4067C16.262 24.1733 18.142 24.1733 19.2887 23.4067C20.2954 22.7333 20.2954 21.6267 19.2887 20.96C18.1487 20.1933 16.2687 20.1933 15.1154 20.96Z" fill="#99938F"/>
</svg>
