<svg width="20" height="20" viewBox="0 0 20 20" fill="none" xmlns="http://www.w3.org/2000/svg">
<path d="M18.3333 12.5V7.49999C18.3333 3.33332 16.6667 1.66666 12.5 1.66666H7.5C3.33333 1.66666 1.66666 3.33332 1.66666 7.49999V12.5C1.66666 16.6667 3.33333 18.3333 7.5 18.3333H12.5C16.6667 18.3333 18.3333 16.6667 18.3333 12.5Z" stroke="#99938F" stroke-width="1.5" stroke-linecap="round" stroke-linejoin="round"/>
<path d="M8.01666 14.4167C8.99237 14.4167 9.78333 13.6257 9.78333 12.65C9.78333 11.6743 8.99237 10.8833 8.01666 10.8833C7.04096 10.8833 6.25 11.6743 6.25 12.65C6.25 13.6257 7.04096 14.4167 8.01666 14.4167Z" stroke="#99938F" stroke-linecap="round" stroke-linejoin="round"/>
<path d="M9.78333 12.65V6.47501" stroke="#99938F" stroke-linecap="round" stroke-linejoin="round"/>
<path d="M10.9417 5.64169L12.8916 6.29166C13.3666 6.44999 13.75 6.98332 13.75 7.48332V7.99998C13.75 8.67498 13.225 9.04998 12.5917 8.83332L10.6417 8.18334C10.1667 8.02501 9.78333 7.49168 9.78333 6.99168V6.47502C9.78333 5.80835 10.3 5.42502 10.9417 5.64169Z" stroke="#99938F" stroke-linecap="round" stroke-linejoin="round"/>
</svg>
