<svg width="20" height="20" viewBox="0 0 20 20" fill="none" xmlns="http://www.w3.org/2000/svg">
<path d="M17.5 7.20836V11.9583C17.5 12.2417 17.4917 12.5167 17.475 12.775C16.875 12.0917 15.9833 11.6667 15 11.6667C13.1583 11.6667 11.6667 13.1583 11.6667 15C11.6667 15.625 11.8417 16.2167 12.15 16.7167C12.3167 17 12.5333 17.2583 12.7833 17.475C12.525 17.4916 12.25 17.5 11.9583 17.5H7.20833C3.24999 17.5 1.66666 15.9167 1.66666 11.9583V7.20836C1.66666 3.25003 3.24999 1.66667 7.20833 1.66667H11.9583C15.9167 1.66667 17.5 3.25003 17.5 7.20836Z" stroke="#99938F" stroke-width="1.5" stroke-linecap="round" stroke-linejoin="round"/>
<path d="M5.6 12.0167C6.26735 12.0167 6.80833 11.4757 6.80833 10.8083C6.80833 10.141 6.26735 9.60002 5.6 9.60002C4.93266 9.60002 4.39167 10.141 4.39167 10.8083C4.39167 11.4757 4.93266 12.0167 5.6 12.0167Z" stroke="#99938F" stroke-linecap="round" stroke-linejoin="round"/>
<path d="M11.2333 9.99999V5.28334C11.2333 4.27501 10.6 4.14165 9.96667 4.31665L7.55834 4.97496C7.12501 5.09163 6.81666 5.44166 6.81666 5.94166V6.78333V7.34999V10.8083" stroke="#99938F" stroke-linecap="round" stroke-linejoin="round"/>
<path d="M10.025 11.2083C10.6923 11.2083 11.2333 10.6673 11.2333 10C11.2333 9.33266 10.6923 8.79166 10.025 8.79166C9.35766 8.79166 8.81667 9.33266 8.81667 10C8.81667 10.6673 9.35766 11.2083 10.025 11.2083Z" stroke="#99938F" stroke-linecap="round" stroke-linejoin="round"/>
<path d="M6.80833 7.35835L11.2333 6.15001" stroke="#99938F" stroke-linecap="round" stroke-linejoin="round"/>
<path d="M18.3333 15C18.3333 15.625 18.1583 16.2167 17.85 16.7167C17.275 17.6833 16.2167 18.3333 15 18.3333C13.7833 18.3333 12.725 17.6833 12.15 16.7167C11.8417 16.2167 11.6667 15.625 11.6667 15C11.6667 13.1583 13.1583 11.6667 15 11.6667C16.8417 11.6667 18.3333 13.1583 18.3333 15Z" stroke="#99938F" stroke-width="1.5" stroke-miterlimit="10" stroke-linecap="round" stroke-linejoin="round"/>
<path d="M16.2417 14.9833H13.7583" stroke="#99938F" stroke-miterlimit="10" stroke-linecap="round" stroke-linejoin="round"/>
<path d="M15 13.7667V16.2584" stroke="#99938F" stroke-miterlimit="10" stroke-linecap="round" stroke-linejoin="round"/>
</svg>
