<svg width="20" height="20" viewBox="0 0 20 20" fill="none" xmlns="http://www.w3.org/2000/svg">
<path d="M17.5001 7.20836V11.9583C17.5001 12.2417 17.4917 12.5167 17.4751 12.775C16.8751 12.0917 15.9834 11.6667 15.0001 11.6667C13.1584 11.6667 11.6667 13.1583 11.6667 15C11.6667 15.625 11.8417 16.2167 12.1501 16.7167C12.3167 17 12.5334 17.2583 12.7834 17.475C12.5251 17.4916 12.2501 17.5 11.9584 17.5H7.20841C3.25008 17.5 1.66675 15.9167 1.66675 11.9583V7.20836C1.66675 3.25003 3.25008 1.66667 7.20841 1.66667H11.9584C15.9168 1.66667 17.5001 3.25003 17.5001 7.20836Z" stroke="#FF7E3A" stroke-width="1.5" stroke-linecap="round" stroke-linejoin="round"/>
<path d="M5.59993 12.0167C6.26728 12.0167 6.80826 11.4757 6.80826 10.8083C6.80826 10.141 6.26728 9.60002 5.59993 9.60002C4.93259 9.60002 4.3916 10.141 4.3916 10.8083C4.3916 11.4757 4.93259 12.0167 5.59993 12.0167Z" stroke="#FF7E3A" stroke-linecap="round" stroke-linejoin="round"/>
<path d="M11.2333 9.99999V5.28334C11.2333 4.27501 10.6 4.14165 9.96666 4.31665L7.55833 4.97496C7.125 5.09163 6.81665 5.44166 6.81665 5.94166V6.78333V7.34999V10.8083" stroke="#FF7E3A" stroke-linecap="round" stroke-linejoin="round"/>
<path d="M10.025 11.2083C10.6923 11.2083 11.2333 10.6673 11.2333 10C11.2333 9.33266 10.6923 8.79166 10.025 8.79166C9.35764 8.79166 8.81665 9.33266 8.81665 10C8.81665 10.6673 9.35764 11.2083 10.025 11.2083Z" stroke="#FF7E3A" stroke-linecap="round" stroke-linejoin="round"/>
<path d="M6.80835 7.35835L11.2333 6.15001" stroke="#FF7E3A" stroke-linecap="round" stroke-linejoin="round"/>
<path d="M18.3334 15C18.3334 15.625 18.1584 16.2167 17.8501 16.7167C17.2751 17.6833 16.2167 18.3333 15.0001 18.3333C13.7834 18.3333 12.7251 17.6833 12.1501 16.7167C11.8417 16.2167 11.6667 15.625 11.6667 15C11.6667 13.1583 13.1584 11.6667 15.0001 11.6667C16.8417 11.6667 18.3334 13.1583 18.3334 15Z" stroke="#FF7E3A" stroke-width="1.5" stroke-miterlimit="10" stroke-linecap="round" stroke-linejoin="round"/>
<path d="M16.2416 14.9833H13.7583" stroke="#FF7E3A" stroke-miterlimit="10" stroke-linecap="round" stroke-linejoin="round"/>
<path d="M15 13.7667V16.2584" stroke="#FF7E3A" stroke-miterlimit="10" stroke-linecap="round" stroke-linejoin="round"/>
</svg>
