<svg width="144" height="144" viewBox="0 0 144 144" fill="none" xmlns="http://www.w3.org/2000/svg">
<g filter="url(#filter0_d_525_153)">
<path d="M72 24.6667C59.12 24.6667 48.6666 35.12 48.6666 48C48.6666 60.88 59.12 71.3334 72 71.3334C84.88 71.3334 95.3333 60.88 95.3333 48C95.3333 35.12 84.88 24.6667 72 24.6667ZM78.2066 52.0367L75.22 53.7634L72.2333 55.49C68.3833 57.7067 65.2333 55.8867 65.2333 51.4534V48V44.5467C65.2333 40.09 68.3833 38.2934 72.2333 40.51L75.22 42.2367L78.2066 43.9634C82.0566 46.18 82.0566 49.82 78.2066 52.0367Z" fill="#FF7E3A"/>
</g>
<defs>
<filter id="filter0_d_525_153" x="-4" y="-4" width="152" height="152" filterUnits="userSpaceOnUse" color-interpolation-filters="sRGB">
<feFlood flood-opacity="0" result="BackgroundImageFix"/>
<feColorMatrix in="SourceAlpha" type="matrix" values="0 0 0 0 0 0 0 0 0 0 0 0 0 0 0 0 0 0 127 0" result="hardAlpha"/>
<feOffset dy="24"/>
<feGaussianBlur stdDeviation="24"/>
<feComposite in2="hardAlpha" operator="out"/>
<feColorMatrix type="matrix" values="0 0 0 0 1 0 0 0 0 0.494118 0 0 0 0 0.227451 0 0 0 0.3 0"/>
<feBlend mode="normal" in2="BackgroundImageFix" result="effect1_dropShadow_525_153"/>
<feBlend mode="normal" in="SourceGraphic" in2="effect1_dropShadow_525_153" result="shape"/>
</filter>
</defs>
</svg>
