<svg width="20" height="20" viewBox="0 0 20 20" fill="none" xmlns="http://www.w3.org/2000/svg">
<path d="M18.3332 12.5V7.49999C18.3332 3.33332 16.6665 1.66666 12.4998 1.66666H7.49984C3.33317 1.66666 1.6665 3.33332 1.6665 7.49999V12.5C1.6665 16.6667 3.33317 18.3333 7.49984 18.3333H12.4998C16.6665 18.3333 18.3332 16.6667 18.3332 12.5Z" stroke="#FF7E3A" stroke-width="1.5" stroke-linecap="round" stroke-linejoin="round"/>
<path d="M8.01666 14.4167C8.99237 14.4167 9.78333 13.6257 9.78333 12.65C9.78333 11.6743 8.99237 10.8833 8.01666 10.8833C7.04096 10.8833 6.25 11.6743 6.25 12.65C6.25 13.6257 7.04096 14.4167 8.01666 14.4167Z" stroke="#FF7E3A" stroke-linecap="round" stroke-linejoin="round"/>
<path d="M9.7832 12.65V6.47501" stroke="#FF7E3A" stroke-linecap="round" stroke-linejoin="round"/>
<path d="M10.9415 5.64169L12.8915 6.29166C13.3665 6.44999 13.7499 6.98332 13.7499 7.48332V7.99998C13.7499 8.67498 13.2249 9.04998 12.5915 8.83332L10.6416 8.18334C10.1666 8.02501 9.7832 7.49168 9.7832 6.99168V6.47502C9.7832 5.80835 10.2999 5.42502 10.9415 5.64169Z" stroke="#FF7E3A" stroke-linecap="round" stroke-linejoin="round"/>
</svg>
