<svg width="20" height="20" viewBox="0 0 20 20" fill="none" xmlns="http://www.w3.org/2000/svg">
<path d="M16.7 5.68333L11.9 2.325C10.5917 1.40833 8.58333 1.45833 7.325 2.43333L3.15 5.69167C2.31667 6.34167 1.65833 7.675 1.65833 8.725V14.475C1.65833 16.6 3.38333 18.3333 5.50833 18.3333H14.4917C16.6167 18.3333 18.3417 16.6083 18.3417 14.4833V8.83333C18.3417 7.70833 17.6167 6.325 16.7 5.68333ZM10.625 15C10.625 15.3417 10.3417 15.625 10 15.625C9.65833 15.625 9.375 15.3417 9.375 15V12.5C9.375 12.1583 9.65833 11.875 10 11.875C10.3417 11.875 10.625 12.1583 10.625 12.5V15Z" fill="#FF7E3A"/>
</svg>
