<svg width="16" height="16" viewBox="0 0 16 16" fill="none" xmlns="http://www.w3.org/2000/svg">
<path d="M5.31333 14.6666C6.78609 14.6666 7.98 13.4727 7.98 12C7.98 10.5272 6.78609 9.33331 5.31333 9.33331C3.84057 9.33331 2.64667 10.5272 2.64667 12C2.64667 13.4727 3.84057 14.6666 5.31333 14.6666Z" stroke="#99938F" stroke-width="1.5" stroke-linecap="round" stroke-linejoin="round"/>
<path d="M7.97998 12V2.66669" stroke="#99938F" stroke-width="1.5" stroke-linecap="round" stroke-linejoin="round"/>
<path d="M9.74001 1.40664L12.6867 2.38664C13.4 2.62664 13.9867 3.43331 13.9867 4.18665V4.96665C13.9867 5.98665 13.2 6.55331 12.2333 6.23331L9.28668 5.25331C8.57334 5.01331 7.98668 4.20665 7.98668 3.45331V2.66665C7.98001 1.65331 8.77334 1.07998 9.74001 1.40664Z" stroke="#99938F" stroke-width="1.5" stroke-linecap="round" stroke-linejoin="round"/>
</svg>
